PathFileType	4	(X/Y/Z)	./resultDataOpenSim/trcMotMarkerGrf/sub10/qtm-15-08.trc
DataRate	CameraRate	NumFrames	NumMarkers	Units	OrigDataRate	OrigDataStartFrame	OrigNumFrames
250.000000	250.000000	7	24	m	250.000000	191	507
Frame#	Time	L.Toe.Tip			R.Toe.Tip			L.Ankle.Lat			R.Ankle.Lat			L.Ankle.Med			R.Ankle.Med			L.Heel			R.Heel			L.Knee.Lat			R.Knee.Lat			L.Knee.Med			R.Knee.Med			L.Thigh.Upper			R.Thigh.Upper			L.ASIS			R.ASIS			V.Sacral			L.Acromium			R.Acromium			C7			L.Elbow			R.Elbow			L.Wrist.Lat			R.Wrist.Lat
		X1	Y1	Z1	X2	Y2	Z2	X3	Y3	Z3	X4	Y4	Z4	X5	Y5	Z5	X6	Y6	Z6	X7	Y7	Z7	X8	Y8	Z8	X9	Y9	Z9	X10	Y10	Z10	X11	Y11	Z11	X12	Y12	Z12	X13	Y13	Z13	X14	Y14	Z14	X15	Y15	Z15	X16	Y16	Z16	X17	Y17	Z17	X18	Y18	Z18	X19	Y19	Z19	X20	Y20	Z20	X21	Y21	Z21	X22	Y22	Z22	X23	Y23	Z23	X24	Y24	Z24

191	0.76	-0.015936045	-0.049883777	-0.036615716	-0.68290137	0.038271103	0.036697204	-0.13601934	-0.0004631354	-0.09181651	-0.75136238	0.15937458	0.070563254	-0.13288694	0.026066053	-0.010148584	-0.70342858	0.15198581	-0.0018814412	-0.2060863	-0.019159607	-0.055271402	-0.78949999	0.17861274	0.012006107	-0.12379116	0.39226934	-0.1237151	-0.43493681	0.39126997	0.12380393	-0.1158102	0.37190271	-0.0016698104	-0.39301496	0.37622045	0.0054618889	-0.20724535	0.77223414	-0.18100609	-0.3438644	0.78056298	0.17972206	-0.18108987	0.88418394	-0.1000762	-0.24048559	0.86754778	0.13587572	-0.40263909	0.8870692	-0.03491764	-0.29400146	1.3414353	-0.1601352	-0.32681009	1.3430609	0.16121059	-0.39107495	1.3650002	-0.011736947	-0.43514064	1.0295361	-0.19442434	-0.33669655	0.97961936	0.20284287	-0.37302259	0.80103713	-0.24819959	-0.093592837	0.9148555	0.20059745
192	0.764	-0.013749809	-0.051344579	-0.036108746	-0.68094105	0.038480579	0.036488013	-0.13560007	-0.0032941719	-0.091366561	-0.7428148	0.16359461	0.07182435	-0.13403144	0.023067234	-0.0098813616	-0.69472708	0.15447501	0.00014235638	-0.20561933	-0.022854349	-0.055832458	-0.77939622	0.18496187	0.01337445	-0.1207337	0.3894548	-0.12379468	-0.42282383	0.38897347	0.12623615	-0.11343109	0.36878216	-0.00146574	-0.37956396	0.37225805	0.0081399474	-0.19997309	0.77061608	-0.18139276	-0.33553498	0.77911027	0.17929055	-0.17425378	0.88289113	-0.10048192	-0.23278549	0.86659564	0.13465885	-0.39530335	0.88627311	-0.035287745	-0.28755593	1.3402035	-0.16090797	-0.32105427	1.3417684	0.16018519	-0.38426667	1.3633644	-0.012838044	-0.42918152	1.0287832	-0.19358438	-0.33326371	0.97831431	0.20151116	-0.36633527	0.7998452	-0.25006587	-0.089885631	0.91307095	0.20198637
193	0.768	-0.011627208	-0.052426124	-0.036400443	-0.67836259	0.039152982	0.036423291	-0.13555265	-0.0060599486	-0.09100577	-0.73396058	0.16779535	0.073123292	-0.13562547	0.019979033	-0.0096520273	-0.68576329	0.15715982	0.0020231715	-0.20531725	-0.027053079	-0.056201747	-0.76921293	0.19114554	0.015031585	-0.11757625	0.38657658	-0.12383964	-0.41062829	0.38653669	0.12884395	-0.11118019	0.36552923	-0.00129505	-0.36581907	0.36806143	0.010920387	-0.19274892	0.76887601	-0.18180765	-0.32724664	0.77756124	0.17885082	-0.16751426	0.88142827	-0.10086348	-0.22525236	0.86556772	0.13344858	-0.38785943	0.88539396	-0.035803535	-0.28103877	1.3388735	-0.16166987	-0.31529686	1.3403541	0.15915154	-0.3773857	1.3616057	-0.013790844	-0.42285387	1.0278143	-0.19305375	-0.32972903	0.97694214	0.20033246	-0.35959354	0.79866621	-0.25209141	-0.086137109	0.91111739	0.20356906
194	0.772	-0.010004724	-0.053475361	-0.036975733	-0.67517669	0.040354688	0.036604648	-0.13580293	-0.0087510733	-0.090672862	-0.72483828	0.17195696	0.074418747	-0.13694836	0.016870489	-0.0092557731	-0.67650934	0.16005592	0.0037347444	-0.20534653	-0.031175819	-0.056206596	-0.75905325	0.19720487	0.016985847	-0.11431722	0.38362278	-0.12377779	-0.39834474	0.3839569	0.13157902	-0.10892657	0.36217718	-0.0010820634	-0.35177425	0.36368045	0.013789876	-0.1856016	0.76700989	-0.18224897	-0.31904628	0.77591801	0.17846346	-0.16087651	0.87978306	-0.10121193	-0.2178668	0.86443729	0.13224627	-0.38038083	0.88446971	-0.036290843	-0.27446421	1.3374301	-0.16238734	-0.30954233	1.3388192	0.15811299	-0.3704645	1.3597226	-0.014643832	-0.41587935	1.0264491	-0.1932758	-0.3260025	0.97555329	0.19934319	-0.35279229	0.79748482	-0.25428236	-0.082340398	0.9089976	0.20535513
195	0.776	-0.0090830874	-0.054470235	-0.037334635	-0.67147412	0.042035741	0.037065678	-0.13633177	-0.011398496	-0.090313391	-0.71541987	0.17611532	0.075720572	-0.13787647	0.013825253	-0.0086394429	-0.66703865	0.16309052	0.0052878941	-0.20581627	-0.034832861	-0.055975679	-0.74885565	0.20323228	0.019159965	-0.1110126	0.38058025	-0.12358224	-0.38596435	0.38122812	0.13440091	-0.10655888	0.35877292	-0.00078833436	-0.33744944	0.35913266	0.016711154	-0.17857538	0.76501082	-0.18269827	-0.3110144	0.77417662	0.17821268	-0.15434416	0.87793805	-0.10152729	-0.21055218	0.86315266	0.13102815	-0.37302275	0.88346157	-0.036778135	-0.267817	1.3358555	-0.1630447	-0.30379151	1.3371573	0.15707508	-0.36353454	1.3577341	-0.015470152	-0.40839132	1.0246785	-0.19416776	-0.32204921	0.97410816	0.19842256	-0.34588788	0.79623324	-0.25658123	-0.078521263	0.90671491	0.2073797
196	0.78	-0.0088957577	-0.0552624	-0.03727695	-0.66727594	0.044117415	0.03778861	-0.13712829	-0.014029786	-0.089920235	-0.70559285	0.18035752	0.077096728	-0.13887041	0.010908646	-0.007909976	-0.65744166	0.16616994	0.0067161962	-0.2066713	-0.037956574	-0.055794387	-0.7384413	0.20930618	0.021369781	-0.10767803	0.3774577	-0.12325503	-0.37349067	0.37834782	0.13726446	-0.1040624	0.35536652	-0.00044486814	-0.32293338	0.35441698	0.019627076	-0.17170544	0.76286557	-0.18314387	-0.30318928	0.77232493	0.17812574	-0.14791989	0.87588136	-0.1018189	-0.20323336	0.86167048	0.12977433	-0.36592574	0.88227871	-0.037567193	-0.26107767	1.3341419	-0.16365508	-0.29804354	1.3353606	0.15604688	-0.35664958	1.3556691	-0.016297731	-0.4006748	1.0226184	-0.19539859	-0.31785742	0.97254489	0.1974239	-0.33883595	0.79483915	-0.25891875	-0.074718192	0.90426987	0.20968154
197	0.784	-0.0092836811	-0.055793288	-0.036921292	-0.662469	0.046585143	0.038765159	-0.13811845	-0.016631365	-0.089508242	-0.69526844	0.18474381	0.078605643	-0.14040193	0.0081352352	-0.007174286	-0.64769281	0.16924652	0.0080684024	-0.20773413	-0.040690556	-0.055814854	-0.72761298	0.2154114	0.023356294	-0.10426178	0.37428452	-0.12279363	-0.3609362	0.37532954	0.14012699	-0.10150375	0.35199205	-0.00010083076	-0.30834333	0.34955711	0.022504267	-0.16498663	0.76056383	-0.18360378	-0.29547194	0.77035247	0.17806172	-0.14161627	0.87361705	-0.10210134	-0.19591793	0.85999704	0.12849578	-0.35914865	0.88090169	-0.0388656	-0.25424085	1.3322933	-0.16424245	-0.29229712	1.3334327	0.15504213	-0.349849	1.3535381	-0.017121697	-0.39290616	1.0203906	-0.19673085	-0.31349643	0.97084666	0.19632674	-0.33164043	0.793282	-0.26127977	-0.070953526	0.90166717	0.21227418
